<svg xmlns="http://www.w3.org/2000/svg" width="1500" height="920" viewBox="0 0 1500 920"><defs><style>.bg{fill:#fbfaf6}.box{fill:#fffdf7;stroke:#1e1e1e;stroke-width:3;rx:14}.skill{fill:#e9f6ff}.agent{fill:#fff2cc}.io{fill:#eaf7df}.plumb{fill:#f0edf9}.text{font-family:Inter,Arial,sans-serif;fill:#1f2933}.h{font-size:28px;font-weight:800}.t{font-size:20px;font-weight:650}.s{font-size:16px}.xs{font-size:14px}.arrow{stroke:#1e1e1e;stroke-width:3;fill:none;marker-end:url(#arrow)}.dash{stroke-dasharray:10 8}.note{fill:#fff;stroke:#1e1e1e;stroke-width:2;rx:10}</style><marker id="arrow" viewBox="0 0 10 10" refX="9" refY="5" markerWidth="8" markerHeight="8" orient="auto-start-reverse"><path d="M0,0 L10,5 L0,10 z" fill="#1e1e1e"/></marker></defs><rect class="bg" width="1500" height="920"/><text x="60" y="64" class="text h">Drip Scout, current repo wiring</text><text x="60" y="94" class="text s">Grounded in sandbox/codex-agent/.codex/config.toml and current SKILL.md / TOML files.</text><rect x="55" y="145" width="250" height="115" class="box plumb"/><text x="80" y="185" class="text t">Runner prompt</text><text x="80" y="215" class="text s">Lean user task</text><text x="80" y="239" class="text xs">Use $scout...</text><rect x="380" y="125" width="310" height="155" class="box skill"/><text x="410" y="172" class="text t">$scout skill</text><text x="410" y="202" class="text s">End-to-end Scout employee</text><text x="410" y="226" class="text xs">Owns orchestration + judgment</text><text x="410" y="250" class="text xs">Writes scout-output.json</text><rect x="825" y="80" width="300" height="145" class="box agent"/><text x="855" y="125" class="text t">x-researcher</text><text x="855" y="154" class="text s">Evidence-only subagent</text><text x="855" y="178" class="text xs">Uses $x-trends</text><text x="855" y="202" class="text xs">No final synthesis</text><rect x="825" y="300" width="300" height="145" class="box agent"/><text x="855" y="345" class="text t">exa-researcher</text><text x="855" y="374" class="text s">Evidence-only subagent</text><text x="855" y="398" class="text xs">Uses $exa-search</text><text x="855" y="422" class="text xs">No final synthesis</text><rect x="1210" y="80" width="250" height="145" class="box skill"/><text x="1238" y="125" class="text t">$x-trends</text><text x="1238" y="154" class="text s">Generic X adapter</text><text x="1238" y="178" class="text xs">WOEID + recent search</text><text x="1238" y="202" class="text xs">API-level parallelism only</text><rect x="1210" y="300" width="250" height="145" class="box skill"/><text x="1238" y="345" class="text t">$exa-search</text><text x="1238" y="374" class="text s">Query-agnostic Exa adapter</text><text x="1238" y="398" class="text xs">Caller supplies queries</text><text x="1238" y="422" class="text xs">Highlights + compact evidence</text><rect x="380" y="520" width="310" height="150" class="box io"/><text x="410" y="565" class="text t">Scout judgment</text><text x="410" y="594" class="text s">Diversity, culture, safety/IP,</text><text x="410" y="618" class="text s">fashion plausibility</text><text x="410" y="646" class="text xs">No coded ranking or scoring</text><rect x="800" y="535" width="350" height="135" class="box io"/><text x="830" y="579" class="text t">scout-output.json</text><text x="830" y="609" class="text s">schemaVersion:</text><text x="830" y="633" class="text xs">scout.cultural-moments.v1</text><text x="830" y="657" class="text xs">up to 5 source-backed candidates</text><rect x="800" y="735" width="350" height="92" class="box plumb"/><text x="830" y="776" class="text t">Runner readback</text><text x="830" y="805" class="text s">Attaches scoutArtifact only</text><path d="M305 202 C335 202 350 202 380 202" class="arrow"/><path d="M690 172 C760 145 785 145 825 145" class="arrow"/><path d="M690 230 C760 365 785 372 825 372" class="arrow"/><path d="M1125 152 C1160 152 1178 152 1210 152" class="arrow"/><path d="M1125 372 C1160 372 1178 372 1210 372" class="arrow"/><path d="M825 210 C765 275 720 450 620 520" class="arrow dash"/><path d="M825 430 C745 500 720 525 690 575" class="arrow dash"/><path d="M535 280 C535 390 535 450 535 520" class="arrow"/><path d="M690 600 C730 600 760 600 800 600" class="arrow"/><path d="M975 670 C975 705 975 715 975 735" class="arrow"/><rect x="55" y="760" width="610" height="94" class="note"/><text x="80" y="795" class="text t">Current config constraints</text><text x="80" y="825" class="text s">model gpt-5.5, service_tier fast, max_threads 3, max_depth 1</text><text x="80" y="848" class="text xs">Source skills explicitly say: API-level parallelism, do not spawn nested Codex subagents.</text></svg>